<?xml version="1.0" standalone="no"?>
<!DOCTYPE svg PUBLIC "-//W3C//DTD SVG 20010904//EN"
 "http://www.w3.org/TR/2001/REC-SVG-20010904/DTD/svg10.dtd">
<svg version="1.0" xmlns="http://www.w3.org/2000/svg"
 width="512.000000pt" height="512.000000pt" viewBox="0 0 512.000000 512.000000"
 preserveAspectRatio="xMidYMid meet">
<metadata>
Created by potrace 1.11, written by Peter Selinger 2001-2013
</metadata>
<g transform="translate(0.000000,512.000000) scale(0.100000,-0.100000)"
fill="#000000" stroke="none">
<path d="M2395 4953 c-253 -29 -393 -63 -595 -146 -91 -37 -256 -122 -270
-138 -3 -3 -25 -17 -50 -32 -25 -14 -92 -64 -150 -110 -236 -190 -414 -415
-544 -689 -120 -250 -176 -474 -191 -758 -7 -126 19 -169 82 -138 21 10 31 27
44 71 27 92 86 202 129 241 84 76 191 111 312 103 211 -14 363 -169 384 -393
5 -56 21 -76 60 -76 38 0 60 31 62 87 3 65 38 161 78 217 44 59 96 101 171
136 52 24 69 27 168 27 99 -1 116 -4 166 -28 106 -51 173 -120 219 -227 24
-54 24 -63 28 -385 4 -364 6 -375 62 -375 58 0 60 11 60 356 0 274 2 319 18
371 36 114 111 201 222 256 61 30 71 32 175 32 103 0 114 -2 177 -32 138 -65
238 -211 238 -349 0 -43 23 -81 50 -85 51 -6 71 17 75 86 11 173 131 322 299
370 79 23 200 16 280 -16 115 -47 180 -129 240 -304 18 -52 31 -73 50 -83 60
-30 88 16 81 136 -15 282 -78 529 -199 777 -253 517 -712 894 -1266 1039 -52
14 -111 28 -130 31 -19 3 -60 10 -90 16 -53 10 -384 19 -445 12z"/>
<path d="M1830 2784 c-89 -27 -144 -103 -144 -199 0 -66 16 -104 60 -149 43
-42 83 -59 144 -60 98 -2 182 60 206 153 42 165 -102 304 -266 255z"/>
<path d="M3146 2605 c-78 -28 -135 -110 -136 -196 -1 -155 157 -256 301 -192
57 26 88 60 109 123 29 86 11 158 -54 218 -65 60 -140 76 -220 47z"/>
<path d="M3535 2523 c4 -10 9 -46 12 -80 6 -71 22 -81 61 -40 37 39 28 98 -19
122 -39 21 -63 20 -54 -2z"/>
<path d="M1625 2007 c-82 -28 -142 -82 -182 -166 -28 -55 -28 -56 -29 -288 0
-160 3 -233 10 -234 6 -1 38 -2 71 -3 92 -4 92 -4 103 -33 6 -16 14 -84 17
-153 3 -69 8 -152 10 -185 2 -33 7 -116 11 -185 3 -69 7 -147 9 -175 1 -27 6
-117 10 -200 4 -82 9 -156 10 -165 2 -8 4 -25 4 -37 l1 -23 230 0 230 0 1 43
c1 23 2 56 4 72 2 28 16 291 19 380 1 29 -4 44 -19 57 -19 15 -20 27 -19 185
1 192 13 249 70 339 76 118 207 186 368 189 165 3 272 -34 362 -125 99 -101
122 -177 124 -406 1 -175 -2 -187 -56 -200 -22 -6 -24 -10 -20 -58 3 -28 8
-105 11 -171 4 -65 9 -137 10 -160 2 -22 5 -64 6 -92 l2 -53 228 0 c125 0 230
3 232 8 3 4 8 65 12 137 3 72 8 159 10 195 2 36 7 119 10 185 3 66 8 140 10
165 2 25 7 106 10 180 3 74 9 144 12 155 10 35 35 44 114 45 l76 0 -1 188 c-2
178 -3 190 -28 243 -44 97 -123 159 -224 176 -27 5 -139 8 -249 8 -273 -2
-354 -28 -371 -120 -12 -70 -46 -123 -105 -168 -127 -96 -313 -48 -385 99 -28
57 -34 136 -15 187 12 30 -11 67 -70 114 -71 56 -115 64 -374 62 -130 -1 -243
-6 -260 -12z"/>
<path d="M2523 1895 c-36 -15 -83 -69 -84 -98 -1 -12 -2 -29 -3 -37 -1 -8 6
-31 16 -52 48 -99 181 -110 241 -19 30 44 30 112 2 155 -35 52 -113 76 -172
51z"/>
<path d="M2470 1300 c-59 -17 -123 -56 -160 -97 -57 -65 -73 -124 -74 -268
l-1 -120 82 -5 c45 -3 87 -10 94 -16 10 -11 19 -71 33 -229 4 -38 9 -88 11
-110 7 -59 13 -120 21 -205 3 -41 8 -78 11 -82 2 -5 46 -8 97 -8 67 0 93 3 93
13 0 22 16 197 28 312 2 22 7 81 11 130 15 198 15 199 137 196 l69 -2 -4 138
c-4 118 -8 145 -27 186 -35 72 -87 121 -161 151 -47 19 -212 29 -260 16z"/>
</g>
</svg>
